<svg width="132" height="55" viewBox="0 0 132 55" fill="none" xmlns="http://www.w3.org/2000/svg">
<g clip-path="url(#clip0)">
<path d="M29.5038 29.6049C29.9247 29.6049 30.2392 29.7621 30.4475 30.0765C30.6558 30.3908 30.762 30.7987 30.762 31.2957C30.762 32.0816 30.5707 32.7528 30.1924 33.305C29.8099 33.8573 29.1595 34.3543 28.2414 34.8004C26.6899 35.5353 24.6836 36.1173 22.2139 36.5506C19.7443 36.9839 17.3172 37.2005 14.9283 37.2005C11.6213 37.2005 8.84987 36.8267 6.61828 36.079C4.38668 35.3314 2.72467 34.2991 1.6365 32.9907C0.544084 31.678 0 30.1954 0 28.5429C0 26.2872 0.726863 24.3628 2.18484 22.774C3.64282 21.1852 5.7894 20.0382 8.62459 19.3288C7.0731 18.8828 5.88716 18.0969 5.05829 16.9669C4.22941 15.8369 3.81709 14.5795 3.81709 13.1861C3.81709 11.2957 4.41219 9.62193 5.61087 8.16484C6.80531 6.70774 8.41206 5.58625 10.4354 4.80035C12.4587 4.01446 14.6775 3.61938 17.0919 3.61938C20.3479 3.61938 22.792 4.32032 24.42 5.72644C26.048 7.13255 26.8642 8.94649 26.8642 11.181C26.8642 12.7315 26.5836 13.9847 26.0183 14.9405C25.453 15.9006 24.6453 16.3764 23.5954 16.3764C22.8601 16.3764 22.282 16.2107 21.8611 15.8836C21.4403 15.5565 21.232 15.0637 21.232 14.4053C21.232 13.9592 21.2958 13.4749 21.4276 12.9482C21.5593 12.0816 21.6231 11.4911 21.6231 11.1767C21.6231 10.2337 21.2703 9.46475 20.5604 8.87427C19.8506 8.28379 18.6689 7.99067 17.0154 7.99067C14.7838 7.99067 12.9985 8.4622 11.6596 9.40953C10.3206 10.3569 9.649 11.627 9.649 13.2286C9.649 14.4605 10.1548 15.48 11.1665 16.2787C12.1781 17.0816 13.8274 17.5191 16.11 17.5956C16.6881 17.6211 17.0962 17.7528 17.3299 17.9907C17.568 18.2286 17.6827 18.6194 17.6827 19.1716C17.6827 20.9049 16.8964 21.7842 15.3194 21.8097C13.1388 21.8607 11.3323 22.1623 9.90404 22.7145C8.47157 23.2668 7.4344 23.9677 6.79255 24.8216C6.15071 25.6755 5.82766 26.5888 5.82766 27.5574C5.82766 29.1844 6.58852 30.4121 8.11451 31.2405C9.63625 32.0688 12.0549 32.4809 15.3619 32.4809C17.5425 32.4809 19.8463 32.226 22.2735 31.712C24.7006 31.2022 26.7834 30.5778 28.5177 29.8428C28.913 29.6857 29.2403 29.6049 29.5038 29.6049Z" fill="#F1F1F1"/>
<path d="M51.4287 28.7001C51.6243 29.0144 51.722 29.4478 51.722 30C51.722 31.0493 51.4712 31.8649 50.9739 32.4427C49.8177 33.8063 48.551 34.9405 47.1738 35.8496C45.7966 36.7587 44.2409 37.209 42.5066 37.209C41.1676 37.209 39.9775 36.9584 38.9403 36.4613C37.9031 35.9643 37.0828 35.2549 36.4792 34.3373C34.9829 36.2277 33.2104 37.1708 31.1616 37.1708C29.7164 37.1708 28.5729 36.7502 27.7356 35.9091C26.8939 35.068 26.4731 33.955 26.4731 32.5616C26.4731 31.2489 26.7749 30.1869 27.3785 29.3713C27.9821 28.5599 28.8365 28.1521 29.9374 28.1521C30.881 28.1521 31.3571 28.5047 31.3571 29.2141C31.3571 29.3968 31.3316 29.7281 31.2764 30.1997C31.1956 31.1427 31.1573 31.6822 31.1573 31.8139C31.1573 32.5998 31.4974 32.9949 32.1818 32.9949C32.6791 32.9949 33.1594 32.6975 33.6185 32.1071C34.0775 31.5166 34.4601 30.7094 34.7619 29.6856C35.0637 28.6619 35.2167 27.5319 35.2167 26.2999C35.2167 25.3568 35.0977 24.5624 34.8639 23.9167C34.6259 23.2753 34.3368 22.9524 33.9968 22.9524C33.7077 22.9524 33.4995 23.0246 33.3677 23.1691C33.2359 23.3135 33.1041 23.5557 32.9724 23.8955C32.8151 24.3161 32.6026 24.6517 32.3433 24.898C32.0797 25.1487 31.6207 25.2719 30.9661 25.2719C30.388 25.2719 29.9289 25.068 29.5888 24.6602C29.2488 24.2523 29.0745 23.6321 29.0745 22.791C29.0745 21.4528 29.4826 20.4036 30.2945 19.6432C31.1063 18.8828 32.1605 18.5004 33.4442 18.5004C34.5451 18.5004 35.544 18.7681 36.4367 19.3076C37.3293 19.8471 38.0137 20.6245 38.4855 21.6483C39.2719 20.599 40.1602 19.8131 41.1464 19.2863C42.1325 18.7638 43.0974 18.5004 44.0411 18.5004C45.0655 18.5004 45.8476 18.7383 46.3832 19.2099C46.923 19.6814 47.1908 20.4418 47.1908 21.4953C47.1908 22.6763 46.9655 23.6024 46.5192 24.2693C46.0729 24.9405 45.5331 25.2719 44.904 25.2719C44.3259 25.2719 43.9306 25.1529 43.7223 24.9193C43.5098 24.6814 43.3525 24.3415 43.2505 23.8955C43.1995 23.5811 43.1187 23.3432 43.0124 23.1861C42.9062 23.0289 42.7234 22.9482 42.4598 22.9482C42.1453 22.9482 41.8095 23.2455 41.4567 23.836C41.1039 24.4265 40.8021 25.2082 40.5513 26.1767C40.3005 27.1495 40.1772 28.1606 40.1772 29.2099C40.1772 30.4418 40.4705 31.3934 41.0614 32.0646C41.6522 32.7358 42.4598 33.0671 43.4843 33.0671C44.5087 33.0671 45.4736 32.7188 46.379 32.0221C47.2843 31.3254 48.3428 30.2421 49.5499 28.7723C49.8645 28.407 50.2216 28.2201 50.6126 28.2201C50.9612 28.2285 51.229 28.3857 51.4287 28.7001Z" fill="#F1F1F1"/>
<path d="M71.1603 28.7001C71.3558 29.0145 71.4536 29.4478 71.4536 30C71.4536 31.0493 71.2028 31.8649 70.7055 32.4427C69.5748 33.836 68.3634 34.9745 67.0627 35.8666C65.762 36.7587 64.287 37.2048 62.6292 37.2048C61.235 37.2048 60.1086 36.7077 59.2415 35.7094C57.7452 36.6823 56.181 37.1793 54.553 37.2048C54.2129 42.2685 53.4351 46.5038 52.2279 49.9023C51.0207 53.3008 49.2482 55 46.9103 55C45.4906 55 44.4407 54.4902 43.7606 53.4665C43.0762 52.4427 42.7361 51.0238 42.7361 49.2141C42.7361 46.6398 43.327 43.6449 44.5087 40.2167C45.6904 36.7927 47.5139 33.0204 49.9835 28.8998C49.9835 25.068 49.958 22.4044 49.9028 20.9091C49.8773 20.1487 50.179 19.5455 50.8081 19.0994C51.4372 18.6534 52.2279 18.4282 53.1715 18.4282C53.7241 18.4282 54.1237 18.5387 54.3745 18.7638C54.6252 18.989 54.7613 19.4265 54.7868 20.0807C54.7868 20.7392 54.7995 21.2235 54.825 21.5378C55.6667 20.4885 56.4913 19.7324 57.3074 19.2736C58.1193 18.8148 58.9864 18.5854 59.9088 18.5854C61.3795 18.5854 62.5825 19.1759 63.5134 20.3569C64.4443 21.5378 64.9118 23.0884 64.9118 25.0043C64.9118 26.3976 64.6866 27.7485 64.2402 29.0612C63.7939 30.3738 63.1776 31.5676 62.3869 32.6423C62.9395 32.7995 63.3986 32.8802 63.7642 32.8802C64.6313 32.8802 65.4559 32.5659 66.2465 31.9371C67.0372 31.3084 68.0446 30.2591 69.2815 28.7893C69.5961 28.424 69.9531 28.2371 70.3442 28.2371C70.697 28.2286 70.9648 28.3857 71.1603 28.7001ZM49.0016 46.5123C49.4734 43.4282 49.7752 39.588 49.907 34.9958C48.7763 37.6211 47.8837 40.1275 47.2291 42.5149C46.5745 44.9023 46.2429 46.9117 46.2429 48.5387C46.2429 49.3798 46.3407 50.0213 46.5405 50.4673C46.736 50.9134 46.9656 51.1385 47.2291 51.1385C47.939 51.1385 48.5298 49.5965 49.0016 46.5123ZM57.3754 31.8692C58.1745 31.0408 58.8121 30.017 59.284 28.7978C59.7558 27.5786 59.9938 26.2999 59.9938 24.9575C59.9938 24.1716 59.8365 23.5727 59.522 23.1648C59.2075 22.757 58.7866 22.5531 58.2596 22.5531C57.3159 22.5531 56.1725 23.5514 54.8335 25.5438C54.808 26.6993 54.7953 28.39 54.7953 30.6245C54.7953 31.8309 54.7825 32.7655 54.757 33.4197C55.7007 33.2158 56.572 32.6976 57.3754 31.8692Z" fill="#F1F1F1"/>
<path d="M84.0016 28.7001C84.1971 29.0144 84.2991 29.4477 84.2991 30C84.2991 31.0493 84.0483 31.8649 83.551 32.4426C82.4203 33.836 81.1919 34.9745 79.8657 35.8666C78.5395 36.7587 77.0347 37.2048 75.3557 37.2048C73.0433 37.2048 71.3303 36.1555 70.2167 34.0569C69.0987 31.9584 68.5419 29.2396 68.5419 25.9091C68.5419 22.706 68.9542 19.0569 69.7831 14.966C70.612 10.8709 71.8319 7.35344 73.4472 4.41376C75.0624 1.46984 76.9837 0 79.2153 0C80.4778 0 81.4682 0.586236 82.1908 1.75021C82.9134 2.91844 83.2747 4.59218 83.2747 6.77145C83.2747 9.8938 82.4076 13.5174 80.6733 17.6381C78.939 21.7587 76.5884 25.8411 73.6214 29.881C73.8042 30.9558 74.106 31.7247 74.5268 32.1835C74.9476 32.6423 75.5002 32.8717 76.1803 32.8717C77.2558 32.8717 78.2037 32.5616 79.0155 31.9456C79.8317 31.3296 80.8688 30.2719 82.127 28.7765C82.4416 28.4112 82.7986 28.2243 83.1897 28.2243C83.5382 28.2285 83.806 28.3857 84.0016 28.7001ZM76.3036 7.16652C75.5427 9.34579 74.8711 12.0476 74.293 15.2761C73.715 18.5047 73.4004 21.6015 73.3494 24.5667C75.2154 21.4953 76.6989 18.4197 77.7998 15.3356C78.9008 12.2515 79.4533 9.435 79.4533 6.8904C79.4533 4.89804 79.0835 3.89974 78.3524 3.89974C77.7446 3.8955 77.0645 4.98726 76.3036 7.16652Z" fill="#F1F1F1"/>
<path d="M101.986 25.4333C102.169 25.7731 102.262 26.2064 102.262 26.7332C102.262 27.9949 101.88 28.7426 101.119 28.9762C99.542 29.5285 97.8077 29.8428 95.9204 29.9193C95.4231 32.124 94.4369 33.8912 92.9662 35.2124C91.4955 36.5378 89.8292 37.2005 87.9632 37.2005C86.3862 37.2005 85.0429 36.8182 83.925 36.0578C82.8071 35.2974 81.9612 34.2863 81.3831 33.0246C80.805 31.7629 80.516 30.3993 80.516 28.9295C80.516 26.9371 80.8943 25.1572 81.6594 23.5939C82.4203 22.0306 83.4702 20.8114 84.8092 19.932C86.1481 19.0527 87.6316 18.6151 89.2596 18.6151C91.2532 18.6151 92.8642 19.3033 94.0841 20.6839C95.304 22.0646 96.0224 23.7595 96.2307 25.7816C97.4634 25.7009 98.9341 25.4418 100.643 24.9957C100.851 24.9448 101.038 24.915 101.195 24.915C101.54 24.9193 101.803 25.0934 101.986 25.4333ZM90.4625 32.0051C91.0789 31.3211 91.4912 30.3398 91.7037 29.0527C90.8876 28.5004 90.267 27.7782 89.8334 26.8861C89.3999 25.994 89.1831 25.051 89.1831 24.0527C89.1831 23.6321 89.2213 23.2115 89.3021 22.791H89.1066C88.0567 22.791 87.181 23.2965 86.4882 24.3076C85.7911 25.3186 85.4425 26.7417 85.4425 28.5811C85.4425 30.0255 85.7231 31.1257 86.2884 31.8861C86.8537 32.6465 87.5168 33.0289 88.2777 33.0289C89.1193 33.0289 89.8462 32.689 90.4625 32.0051Z" fill="#F1F1F1"/>
<path d="M99.5632 35.6287C99.1551 34.5794 98.9511 32.9015 98.9511 30.5905C98.9511 27.1793 99.4357 23.938 100.409 20.8666C100.647 20.1062 101.034 19.5497 101.57 19.1929C102.109 18.8403 102.862 18.6619 103.835 18.6619C104.362 18.6619 104.728 18.7256 104.94 18.8573C105.149 18.989 105.255 19.2396 105.255 19.6049C105.255 20.0255 105.059 20.9686 104.664 22.4384C104.4 23.4877 104.192 24.4053 104.035 25.1954C103.878 25.9813 103.746 26.9541 103.64 28.1096C104.507 25.8539 105.476 24.0145 106.556 22.5998C107.631 21.181 108.689 20.1742 109.727 19.5667C110.764 18.9635 111.716 18.6619 112.583 18.6619C114.292 18.6619 115.142 19.5157 115.142 21.2192C115.142 21.5591 115.023 22.3874 114.789 23.7001C114.577 24.7494 114.475 25.4078 114.475 25.667C114.475 26.5845 114.802 27.0433 115.461 27.0433C116.196 27.0433 117.14 26.4656 118.296 25.3101C118.636 24.9703 118.993 24.8004 119.359 24.8004C119.699 24.8004 119.971 24.9533 120.166 25.2549C120.362 25.5565 120.464 25.9558 120.464 26.4571C120.464 27.4299 120.2 28.1903 119.677 28.7426C118.942 29.503 118.083 30.1529 117.097 30.6924C116.111 31.232 115.07 31.4996 113.964 31.4996C112.57 31.4996 111.516 31.147 110.793 30.4376C110.071 29.7281 109.71 28.7723 109.71 27.5616C109.71 27.1665 109.748 26.7757 109.829 26.3806C109.88 25.8539 109.909 25.5013 109.909 25.3186C109.909 24.8981 109.765 24.6899 109.476 24.6899C109.08 24.6899 108.562 25.1317 107.92 26.0068C107.278 26.8862 106.641 28.0459 106.011 29.4902C105.382 30.9346 104.868 32.4554 104.477 34.0569C104.188 35.2889 103.852 36.1258 103.474 36.5548C103.091 36.9881 102.496 37.2048 101.68 37.2048C100.673 37.2048 99.9713 36.678 99.5632 35.6287Z" fill="#F1F1F1"/>
<path d="M131.707 29.8811C131.902 30.1954 132.004 30.6287 132.004 31.181C132.004 32.1241 131.779 32.9397 131.333 33.6236C130.597 34.7536 129.632 35.633 128.438 36.2617C127.244 36.8904 125.82 37.2048 124.162 37.2048C121.641 37.2048 119.686 36.4486 118.292 34.9405C116.897 33.4325 116.205 31.3891 116.205 28.819C116.205 27.0094 116.583 25.3229 117.348 23.7596C118.109 22.2005 119.167 20.9601 120.519 20.0382C121.871 19.1207 123.401 18.6619 125.11 18.6619C126.631 18.6619 127.856 19.1164 128.774 20.0213C129.692 20.9261 130.151 22.1538 130.151 23.7043C130.151 25.514 129.501 27.0688 128.2 28.3687C126.899 29.6687 124.689 30.6967 121.56 31.4571C122.189 32.6636 123.252 33.2668 124.753 33.2668C125.828 33.2668 126.716 33.0162 127.409 32.5191C128.106 32.0221 128.914 31.181 129.832 30C130.147 29.6049 130.504 29.4095 130.895 29.4095C131.239 29.4095 131.511 29.5667 131.707 29.8811ZM121.977 24.2099C121.305 25.3399 120.974 26.7035 120.974 28.305V28.3857C122.525 28.0204 123.745 27.4682 124.638 26.7332C125.531 25.9983 125.977 25.1444 125.977 24.1759C125.977 23.6789 125.841 23.2753 125.565 22.9737C125.288 22.6721 124.914 22.5191 124.442 22.5191C123.465 22.5191 122.644 23.0841 121.977 24.2099Z" fill="#F1F1F1"/>
</g>
<defs>
<clipPath id="clip0">
<rect width="132" height="55" fill="white"/>
</clipPath>
</defs>
</svg>
