<svg width="15" height="24" viewBox="0 0 15 24" fill="none" xmlns="http://www.w3.org/2000/svg">
<g clip-path="url(#clip0)">
<path d="M7.49092 24L0.818925 10.8773C-0.568102 8.15002 -0.169701 4.8964 1.8346 2.58469C3.25606 0.9419 5.31693 0 7.49092 0C9.66491 0 11.7258 0.9419 13.1472 2.58469C15.1491 4.8964 15.5475 8.15247 14.1629 10.8773L7.49092 24ZM3.69135 4.19305C2.34613 5.74485 2.08053 7.93114 3.01013 9.76084L7.49092 18.5724L11.9717 9.7633C12.9013 7.9336 12.6357 5.74731 11.2905 4.19551C10.3338 3.0913 8.94927 2.45927 7.49092 2.45927C6.03257 2.45927 4.64801 3.0913 3.69135 4.19305Z" fill="#F1F1F1"/>
<path d="M7.49093 8.94436C8.55577 8.94436 9.419 8.08114 9.419 7.01629C9.419 5.95145 8.55577 5.08823 7.49093 5.08823C6.42609 5.08823 5.56287 5.95145 5.56287 7.01629C5.56287 8.08114 6.42609 8.94436 7.49093 8.94436Z" fill="#F1F1F1"/>
</g>
<defs>
<clipPath id="clip0">
<rect width="14.9819" height="24" fill="white"/>
</clipPath>
</defs>
</svg>
