<svg width="24" height="24" viewBox="0 0 24 24" fill="none" xmlns="http://www.w3.org/2000/svg">
<path d="M24 22.163L17.3693 15.5323C18.6112 13.9058 19.3491 11.8766 19.3491 9.67587C19.3491 4.33907 15.0101 0 9.67587 0C4.34167 0 0 4.33907 0 9.67587C0 15.0127 4.33907 19.3517 9.67587 19.3517C11.8766 19.3517 13.9058 18.6112 15.5323 17.3719L22.163 24L24 22.163ZM2.59825 9.67587C2.59825 5.7733 5.7733 2.59825 9.67587 2.59825C13.5784 2.59825 16.7535 5.7733 16.7535 9.67587C16.7535 13.5784 13.5758 16.7509 9.67587 16.7509C5.7759 16.7509 2.59825 13.5758 2.59825 9.67587Z" fill="#606060"/>
</svg>
